<?xml version="1.0" encoding="iso-8859-1"?>
<!-- Uploaded to: SVG Repo, www.svgrepo.com, Generator: SVG Repo Mixer Tools -->
<svg fill="#fff" height="15px" width="15px" version="1.1" id="Capa_1" xmlns="http://www.w3.org/2000/svg" xmlns:xlink="http://www.w3.org/1999/xlink" 
	 viewBox="0 0 27.936 27.936" xml:space="preserve">
<g>
	<path d="M19.846,0H8.092C6.967,0,6.059,0.913,6.059,2.034v23.868c0,1.122,0.908,2.034,2.033,2.034h11.754
		c1.121,0,2.031-0.912,2.031-2.034V2.034C21.877,0.913,20.967,0,19.846,0z M11.243,1.472h5.451v0.594h-5.451V1.472z M7.584,3.433
		h12.77v11.039H7.584V3.433z M16.506,19.835v-1.764h3.525v1.764H16.506z M20.032,20.823v1.764h-3.525v-1.764H20.032z M16.506,17.155
		V15.39h3.525v1.765H16.506z M11.43,25.337H7.903v-1.763h3.527V25.337z M11.43,22.586H7.903v-1.764h3.527V22.586z M11.43,19.835
		H7.903v-1.764h3.527V19.835z M11.43,17.155H7.903V15.39h3.527V17.155z M15.733,25.337h-3.528v-1.763h3.527L15.733,25.337
		L15.733,25.337z M15.733,22.586h-3.528v-1.764h3.527L15.733,22.586L15.733,22.586z M15.733,19.835h-3.528v-1.764h3.527
		L15.733,19.835L15.733,19.835z M15.733,17.155h-3.528V15.39h3.527L15.733,17.155L15.733,17.155z M16.506,23.575h3.525v1.763h-3.525
		C16.506,25.338,16.506,23.575,16.506,23.575z M19.879,27.855h-0.861c-0.281,0-0.508-0.228-0.508-0.507s0.227-0.504,0.508-0.504
		h0.861c0.279,0,0.508,0.225,0.508,0.504C20.387,27.627,20.159,27.855,19.879,27.855z"/>
	<g>
	</g>
	<g>
	</g>
	<g>
	</g>
	<g>
	</g>
	<g>
	</g>
	<g>
	</g>
	<g>
	</g>
	<g>
	</g>
	<g>
	</g>
	<g>
	</g>
	<g>
	</g>
	<g>
	</g>
	<g>
	</g>
	<g>
	</g>
	<g>
	</g>
</g>
</svg>